<?xml version="1.0" encoding="utf-8"?>
<!-- Generator: Adobe Illustrator 25.4.1, SVG Export Plug-In . SVG Version: 6.00 Build 0)  -->
<svg version="1.1" id="Layer_1" xmlns="http://www.w3.org/2000/svg" xmlns:xlink="http://www.w3.org/1999/xlink" x="0px" y="0px"
	 viewBox="0 0 450.7 186.8" style="enable-background:new 0 0 450.7 186.8;" xml:space="preserve">
<style type="text/css">
	.st0{fill:#FFFFFF;}
	.st1{fill:url(#SVGID_1_);}
</style>
<g id="Layer_2_00000182494419732556274220000008445770927419275956_">
	<g id="Layer_1-2">
		<path class="st0" d="M47.3,140.9L47.3,140.9c-1.2,0-2.3-0.7-2.9-1.8L0.3,51c-0.7-1.6-0.1-3.5,1.6-4.3c1.5-0.7,3.4-0.1,4.2,1.4
			l41.2,82.4L89.1,48c0.7-1.6,2.6-2.3,4.2-1.6s2.3,2.6,1.6,4.2c0,0.1-0.1,0.2-0.1,0.3L50.1,139C49.6,140.2,48.5,140.9,47.3,140.9z"
			/>
		<path class="st0" d="M210,140.3c-1.8,0-3.2-1.4-3.2-3.2V90.5h68.7c10,0,18.1-9.1,18.1-19.1s-8.1-18.1-18-18.1H210
			c-1.8,0.1-3.3-1.3-3.4-3c-0.1-1.8,1.3-3.3,3-3.4c0.1,0,0.2,0,0.4,0h65.5c13.5,0,24.5,11,24.5,24.5s-11,25.5-24.5,25.5h-62.3v40.3
			C213.2,138.9,211.8,140.3,210,140.3L210,140.3z"/>
		<path class="st0" d="M175.4,140.9h-61.5c-1.8,0-3.2-1.4-3.2-3.2s1.4-3.2,3.2-3.2h61.5c10.4,0,18.8-8.4,18.8-18.8
			s-8.4-18.8-18.8-18.8h-39.5c-13.9,0-25.2-11.3-25.2-25.2s11.3-25.2,25.2-25.2h61.5c1.8,0,3.2,1.4,3.2,3.2s-1.4,3.2-3.2,3.2l0,0
			h-61.5c-10.4,0-18.8,8.4-18.8,18.8s8.4,18.8,18.8,18.8h39.5c13.9,0,25.2,11.3,25.2,25.3C200.6,129.6,189.3,140.9,175.4,140.9z"/>
		<path class="st0" d="M101.2,140.3c-1.8,0-3.2-1.4-3.2-3.2v-87c-0.1-1.8,1.3-3.3,3-3.4s3.3,1.3,3.4,3c0,0.1,0,0.2,0,0.4v87
			C104.4,138.9,103,140.3,101.2,140.3L101.2,140.3z"/>
		
			<linearGradient id="SVGID_1_" gradientUnits="userSpaceOnUse" x1="439.2318" y1="682.3117" x2="363.8218" y2="757.7117" gradientTransform="matrix(1 0 0 1 0 -655.8898)">
			<stop  offset="0" style="stop-color:#12DEF6"/>
			<stop  offset="0.12" style="stop-color:#18E0FF"/>
			<stop  offset="0.29" style="stop-color:#2BD3FD"/>
			<stop  offset="0.49" style="stop-color:#4FBAFB"/>
			<stop  offset="0.72" style="stop-color:#8892F9"/>
			<stop  offset="0.96" style="stop-color:#E04EF1"/>
			<stop  offset="1" style="stop-color:#EF40EA"/>
		</linearGradient>
		<path class="st1" d="M450.7,14.3c0.1,1.5-0.5,3-1.6,4.1c-0.9,0.9-1.6,1.7-2.4,2.5s-1.8,1.4-2.9,1.7c-0.5,0.2-0.9,0.4-1.3,0.8
			c-2,1.5-3.9,3-5.8,4.6s-3.7,3.2-5.6,4.7c-0.7,0.4-1.3,0.9-1.7,1.6c-1.2,1-2.3,1.9-3.4,2.9s-2.3,2-3.6,2.9
			c-1.6,1.6-3.2,3.1-4.8,4.7c-1.6,1.5-3.4,3.1-5.1,4.7l-1.4,1.4c-0.5,0.4-0.9,0.9-1.4,1.3l-4.3,4c-1.4,1.3-2.8,2.5-4.3,3.8
			c-0.1,0.1-0.2,0.2-0.2,0.2s-0.1,0-0.2,0.2c-1,1.9-2.4,3.5-4.1,4.7c-1.7,1.3-3.2,2.6-4.7,4.1l-0.6,0.6c-0.2,0.2-0.3,0.4-0.5,0.6
			c-0.2,0.5-0.4,0.9-0.8,1.3s-0.9,0.6-1.4,0.6c-0.9,0.3-1.7,0.8-2.3,1.6c-0.7,0.6-1.1,1.3-1.3,2.2c0.1,1.1,0.3,2.3,0.7,3.3
			c0.4,1,0.6,2.1,0.6,3.2c0.1,0.5,0.2,1,0.3,1.3c0.1,0.4,0.1,0.8,0.1,1.2c-0.4,1.1-0.2,2.4,0.6,3.3c0.1,0.2,0.2,0.4,0.3,0.6
			c0.1,0.2,0.2,0.4,0.2,0.6c-0.2,1.2,0,2.5,0.5,3.6c0.5,1.2,0.7,2.5,0.5,3.7c-0.1,0.9,0,1.9,0.5,2.7c0.4,0.7,0.8,1.5,1.3,2.4
			c0.2,0.6,0.5,1.3,0.7,2c0.3,0.6,0.4,1.3,0.4,2c0.1,1.9,0.5,3.7,1.1,5.4c0.6,1.8,1.2,3.5,1.7,5.3c0.5,1.3,0.9,2.8,1,4.2
			c0.1,1.4-0.3,2.8-1.1,4c0.2,0.6,0.5,1,1,1s0.9,0.1,1.4,0.2c0.3,0.2,0.6,0.3,0.9,0.6c0.4,0.3,0.6,0.5,0.6,0.7
			c-0.2,1.2-0.1,2.3,0.4,3.4s0.9,2.2,1.1,3.4s0.4,2.2,0.6,3.2c0.2,1.1,0.7,2.2,1.2,3.2c0.2,0.3,0.3,0.7,0.2,1.1
			c-0.1,0.4-0.1,0.8-0.1,1.3c0,2.4,0.3,4.7,1,7s1.6,4.5,2.8,6.6c0.5,1.4,1,2.7,1.6,4.1s1.1,2.8,1.8,4.3c0.1,0.2,1.5,2.2,1.3,2.7
			c-0.6,0.2-1.2,0.2-1.8,0.1c-0.6-0.2-1.1-0.4-1.7-0.7c-2.3-1.5-4.4-3.3-6.2-5.4c-1.8-2.1-3.4-4.3-4.8-6.7c-1-1.6-1.9-3.2-2.8-4.8
			s-1.9-3.2-2.7-4.8c-1.2-1.9-2.2-3.8-3.2-5.8s-1.9-3.9-2.8-5.8c-1-2.1-1.8-4.3-2.5-6.6c-0.7-2.3-1.5-4.4-2.4-6.6
			c-0.6-1.7-1.3-3.3-1.9-4.9s-1.2-3.2-1.7-4.9s-1-3.1-1.4-4.7s-0.9-3.1-1.3-4.7c-0.3-0.8-0.8-2-1.6-3.6c-0.6-1.3-1.4-2.5-2.4-3.6
			c-0.2,0.4-0.4,0.7-0.7,1c-0.3,0.2-0.4,0.5-0.5,0.9c-0.4,0.6-0.9,1.2-1.4,1.8c-0.5,0.6-1.1,1-1.8,1.4c-1.6,1.1-3.1,2.5-4.3,4.1
			c-0.3,0.8-0.9,1.4-1.7,1.8c-0.6,0.3-1.3,0.6-2,0.9c-0.2,0.5-0.4,1.1-0.6,1.7s-0.5,1.1-1,1.5c-0.9,1.2-1.7,2.3-2.7,3.5
			s-2,2.3-3,3.5c-1.8,2.4-3.7,4.9-5.6,7.3c-2,2.5-3.9,4.9-5.8,7.4c-1,1.5-1.9,2.8-2.9,4.1s-2,2.6-3,4c-0.2,0.3-0.4,0.5-0.5,0.9
			c-0.1,0.3-0.3,0.5-0.6,0.7c-0.8,0.2-1.5,0.6-2,1.2c-0.5,0.6-1,1.1-1.5,1.7c-1.2,1.4-2.4,3-3.4,4.6s-2.2,3-3.5,4.3
			c-0.6,0.7-1,1.5-1.3,2.3s-0.7,1.7-1.1,2.4c-1,1.8-1.9,3.6-2.8,5.5s-2.1,3.6-3.6,5.1c-0.3,0.5-0.6,1-0.8,1.5
			c-0.2,0.6-0.5,1.1-0.8,1.7c-0.5,1.1-0.7,2.2-0.6,3.4c0.1,1.1-0.2,2.2-0.6,3.2c-0.3,0.3-0.6,0.7-0.6,1.1c-0.2,1.2-0.3,2.4-0.3,3.6
			c0,1.2-0.1,2.5-0.2,3.9l-0.3,0.6c-0.9,0-1.8-0.1-2.7-0.3c-0.9-0.4-1.7-1.1-2-2.1c-1.4-2.6-2.4-5.5-2.8-8.5s-0.3-6.1,0.2-9.1
			c0.6-2.9,1.3-5.6,2.1-8.3c0.8-2.8,1.8-5.5,2.9-8.2c0.9-2.4,2.1-4.8,3.5-7c1.4-2.3,2.7-4.6,3.8-7c0.2-0.5,0.5-1.1,0.7-1.6
			c0.3-0.6,0.6-1.1,1-1.6c0.9-1.5,1.7-2.9,2.7-4.2s1.9-2.6,2.9-3.9c0.4-0.4,0.7-0.9,1-1.4l0.6-1.3c0.4-0.5,0.8-1,1.1-1.6
			c0.3-0.5,5.4-7.8,5.8-8.3c1.5,0.7,2.3,1.3,2.4,1.8s-5,7.9-6.1,8.7l-0.9,0.9c-0.3,0.2-0.4,0.5-0.5,0.9c-0.3,0.9-0.7,1.7-1.4,2.4
			c-0.6,0.7-1.2,1.4-2,2.3c-0.3,0.3-0.4,0.6-0.5,1c-0.2,0.4-0.5,0.8-0.9,1.1c-2.3,3.7-4.8,7.3-7.6,10.6c-0.2,0.3-0.4,0.7-0.4,1.1
			c0,0.4-0.2,0.8-0.4,1.1c-0.2,0.2-0.3,0.4-0.3,0.6c0,0.2-0.1,0.5-0.3,0.6c-1.3,1.4-2.2,3.2-2.5,5.1c-0.4,1.4-0.9,2.7-1.7,3.9
			c-0.8,1.2-1.4,2.5-2,3.9c-0.3,1.3-0.6,2.6-0.9,3.9c-0.3,1.4-0.2,2.8,0.2,4.2c0.2-0.3,0.4-0.6,0.6-0.9c0.2-0.3,0.4-0.6,0.5-0.9
			c0.5-1.1,1-2.1,1.4-3s0.8-1.9,1.1-2.9c1.1-3.2,2.4-6.3,4-9.3c1.5-2.9,3.3-5.7,5.4-8.3c0.5-0.8,1-1.7,1.4-2.5
			c0.4-0.9,0.8-1.7,1.3-2.5c0.2-0.2,0.4-0.5,0.6-0.7c0.2-0.3,0.5-0.7,0.7-1c0.3,0.2,3.9-3.8,4.1-3.6s-2.7,4.8-2.2,5
			c-0.9,1.5-1.9,3-2.9,4.4c-1.1,1.5,1.5,1.7,2.8,0.1c1.3-1.6,2.2-3.5,2.6-5.6c0.1-0.5,0.3-0.9,0.6-1.3c2-1.4,3.6-3.1,5-5.1
			c1.3-1.9,2.8-3.8,4.4-5.6c0.5-0.4,0.9-0.9,1.3-1.4c0.4-0.6,0.8-1.1,1.3-1.6c-0.6-0.2-1-0.5-1-0.9s0-0.8,0-1.2
			c0.1-0.4,0.1-0.8,0.2-1.3s-0.8,0.5-1.3,0.2c-0.5,0.2-0.3-0.9-0.7-0.6c-0.4,0.3-0.8,0.5-1.2,0.7c-0.1,0-0.2-0.1-0.3-0.2l1.9-3.1
			c0.6-1,1.3-2,1.9-3h0.6c0.1,0.4,0.2,0.8,0.2,1.2s0.7-0.4,0.8,0.2c0.7-0.1,0.8,0.8,1.3,0.4s0.9-0.9,1.3-1.4s0.8-1.1,1.2-1.7
			c0.4-0.6,1-1,1.6-1.3c0.2,0.9-0.1,1.8-0.7,2.4c-0.6,0.4-1.1,0.9-1.5,1.4c-0.3,0.5-0.7,1.1-1,1.7s-0.8,1.3-1.2,1.9
			c0.9,0.2,1.4,0.2,1.7-0.1c0.3-0.3,0.6-0.6,0.9-1c0.7-1.1,1.6-2.1,2.5-3s1.8-1.9,2.6-2.9c0.3-0.3,0.6-0.5,1-0.6s0.8-0.3,1.1-0.5
			c-0.6-1-2.2-1-2.8-2c0.3-0.1,1.6-1.2,1.9-1.3c0.2-0.1,0.5-0.2,0.7-0.2c0.6-0.1,1.2-0.1,1.8-0.1c0.7,0.1,1.4,0,2.1-0.1
			c1.2-0.3,2.1-1.3,2.2-2.5c-0.4-0.2-0.8-0.4-1.3-0.6l-1.4-0.6c0.3-0.3,0.7-0.5,1.1-0.6s0.8-0.2,1.2-0.4c0.4-0.1,0.7-0.4,0.9-0.7
			c0.2-0.4,0.3-0.8,0.3-1.3c0.6,0,1.1,0.1,1.7,0.2c0.4,0.2,0.9,0.1,1.4-0.1c0.4-0.2,0.8-0.6,1-1c0.3-0.5,0.7-0.8,1.2-1.1
			c0.9-1.4,1.9-2.6,2.9-3.8c1-1.2,2-2.3,3-3.5c0.5-0.4,0.8-0.9,1.1-1.5c0.2-0.5,0-1.1-0.5-1.8c-0.4-0.4-0.7-1-0.7-1.6
			c-0.1-0.6-0.2-1.2-0.4-1.7c-0.4-1-0.9-2-1.6-2.9v-2.7c-0.5-0.2-1.1-0.1-1.4,0.2c-0.3,0.4-0.7,0.8-1.1,1.2
			c-0.2,0.2-0.5,0.4-0.8,0.6c-0.3,0.1-0.6,0.3-0.8,0.6c-0.3-0.6-0.6-1.2-0.8-1.9c-0.3-1.1,0.1-2.2,1-2.8l2.2-2.2
			c0.8-0.6,1.1-1.6,0.8-2.5c-1.2-4.2-2.3-8.4-3.3-12.5s-2.2-8.2-3.3-12.2c-0.6-2.6-1.4-5.3-2.3-7.8s-1.7-5.1-2.5-7.7
			c-0.4-1.4-0.8-2.7-1.2-4s-0.8-2.6-1.4-4s-1-3-1.4-4.5s-1.1-3-1.9-4.4c-1-1.2-0.9-2.4,0.1-3.8s2.3-2.7,3.6-2
			c0.4-0.3,0.8,0.4,1.1,0.1l0.8-0.8c0.8-0.8,2-1.2,3.2-0.9c0.7,0.2,1.5,0.3,2.3,0.2c0.7,0,1.4-0.1,2.2-0.2c0.9-0.3,1.8-0.1,2.5,0.5
			c0.5,0.5,1.2,1.3,2.1,2.2c0.2,0.2,0.5,0.4,0.8,0.5c2.1,0.4,3.5,1.4,4.1,2.9s1.2,3,1.7,4.5c0.7,1.9,1.4,3.8,1.9,5.5
			c0.5,1.8,1.1,3.6,1.6,5.4V26c0,2.5,0.4,4.9,1.2,7.3c0.8,2.3,1.5,4.7,2.1,7c0.3,1.3,0.6,2.4,0.9,3.5s0.5,2.1,0.7,3.2l0.2,1
			c0.1,0.3,0.1,0.6,0.2,0.9c0.3,0.5,1,0.6,2,0.2c0.9-0.4,1.7-0.8,2.5-1.4c0.3-0.4,0.6-0.8,0.9-1.1c0.3-0.4,0.6-0.7,1-1
			c1.9-1.9,3.8-3.7,5.6-5.5c1.9-1.8,3.6-3.8,5.1-5.9c0.8-1.1,1.7-2.2,2.7-3.2s2.1-2,3.2-2.9l9.3-8.7c3.2-2.9,6.4-5.8,9.8-8.6
			c1.5-1.4,3-2.7,4.4-4s3-2.6,4.4-3.7c1.4-1.2,3-2.3,4.8-3c0.8-0.3,1.6-0.5,2.5-0.6c0.9,0,1.7,0.3,2.3,1c0.7,0.5,1.3,0.6,1.8,0.2
			s1.1-0.4,2,0v1c0,0.4,0.9,0.8,0.7,1.3c0.6,0.2,0.2,0.4,0.8,0.6s1.2,0.4,1.8,0.6c0.6,0.2,1.1,0.4,1.6,0.7c0.4,0.3,0.5,0.8,0.3,1.5
			c0,0.4,0.1,0.8,0.3,1.1c0.8,0.8,1.3,1.8,1.4,2.9C450.3,12.1,450.5,13.2,450.7,14.3z M325.6,126c-0.2-0.6-0.2-1.2-0.1-1.7
			c0.6-0.8,1.3-1.5,2-2.1c0.3,1.1,0.2,1.8-0.3,2.3S326.1,125.5,325.6,126z M344.3,94.5c0.5-0.1,0.8-0.5,0.9-1c0-0.6-0.1-1.3-0.2-1.9
			c1.7-2.1,3.4-4.2,5.1-6.3c1.7-2.1,3.5-4.3,5.3-6.5c0.3-0.5,4.3-4.9,4.6-5.1s0.9,0,1.7,0.5c-0.6,0.6-4.9,5.3-5.5,6s-1.3,1.3-1.9,2
			c0.3,0.2,0.6,0.4,0.8,0.6c0.2,0.2,0.4,0.4,0.6,0.6c-0.1,1-0.7,1.4-1.7,1.4c-1.5-0.2-2,0.3-1.4,1.6c0.4,0.5,0.3,1.2-0.2,1.6
			c0,0-0.1,0.1-0.2,0.1c-0.5,0.7-1,1.4-1.5,2s-1,1.1-1.5,1.7c-0.2,0.2-0.4,0.3-0.6,0.5c-0.2,0.1-0.5,0.3-0.6,0.5c-1.5,2-3,4-4.5,5.9
			l-4.7,5.9c-0.9,1-1.7,2.1-2.5,3c-0.9,1-1.6,2.2-2.3,3.3c-0.6,1.2-1.2,1.8-1.8,1.8s-1.5-0.4-2.8-1.3c2.1-3,4.3-5.9,6.5-8.8
			s4.4-5.9,6.6-9C343.5,94.1,344,94.4,344.3,94.5L344.3,94.5z M332.7,120.3c0.3,0.8,0.1,1.7-0.5,2.4c-0.6,0.6-1.3,1.1-2,1.6
			c0.4-0.7,0.8-1.4,1.3-2.1S332.2,120.9,332.7,120.3L332.7,120.3z M339.1,107.8c-0.1-0.1-0.2-0.2-0.2-0.2c-0.1,0-0.2-0.1-0.2-0.2
			c0.9-0.9,1.8-1.7,2.8-2.4c-0.2,0.6-0.5,1.1-1,1.5C340.1,107,339.7,107.3,339.1,107.8L339.1,107.8z M339.6,101
			c0.1-0.2,0.2-0.3,0.4-0.5c-0.2-0.2-0.3-0.4-0.3-0.5c-0.2,0.2-0.3,0.3-0.4,0.6c-0.1,0.2-0.2,0.4-0.4,0.6l0.3,0.3
			C339.3,101.3,339.5,101.2,339.6,101L339.6,101z M341.7,104.8c0,0.1,0,0.1-0.1,0.2l0,0L341.7,104.8z M345,100.7
			c-0.4,0.9-0.9,1.7-1.5,2.4l-1.7,1.7c0.1-0.9,0.3-1.7,0.8-2.5C343.1,101.4,344,100.8,345,100.7L345,100.7z M345.7,99.2
			c0.4-0.4,0.8-0.8,1.1-1.2c0.1,0,0.3,0.2,0.5,0.5c-0.4,0.3-0.8,0.8-1.1,1.3L345.7,99.2z M348.6,97c-0.2-1-0.2-1.5-0.1-1.7
			c0.5-0.4,1-0.8,1.7-1c-0.2,0.5-0.5,0.9-0.8,1.3C349.1,96,348.8,96.5,348.6,97z M350.4,94.3l-0.2-0.2h0.2V94.3z M350.3,94.3v-0.2
			l0.2,0.2H350.3z M350.4,94.1c0-0.7,0.2-1.4,0.5-2.1c0.5-0.6,1.3-1,2.1-1L350.4,94.1z M354.4,89.9c-0.2-0.8-0.1-1.6,0.2-2.3
			c0.8-0.8,1.7-1.6,2.6-2.3l0.3,0.3c-0.5,0.6-1,1.3-1.5,2S355,89,354.4,89.9L354.4,89.9z M358,89.6c0.7,0.1,1.2,0.8,1.1,1.5
			c0,0.1-0.1,0.2-0.1,0.4c-0.6-0.1-1-0.3-1-0.6C357.9,90.4,357.9,90,358,89.6z M361.5,86.1c0.2,1.2,0.2,1.2-0.3,1.5
			s-1.1,0.5-1.6,0.7c0.3-0.4,0.6-0.9,0.8-1.3C360.8,86.5,361.1,86.7,361.5,86.1L361.5,86.1z M359.9,84c-0.3-0.8-0.3-1.4,0.1-1.7
			c0.5-0.3,1.1-0.4,1.8-0.4c-0.4,0.2-0.2,0.7-0.5,1S360.3,83.6,359.9,84z M383.7,113c1.4,0.4,1.7-2.6,1.6-3.3
			c-0.1-0.7-0.3-1.5-0.5-2.2c-0.2-0.6-0.3-1.3-0.4-2c-0.2-1.4-0.4-2.8-0.7-4.2c-0.2-0.7-0.7-1.3-1.3-1.7c-0.2-0.2-0.3-0.4-0.3-0.7
			c0-0.3-0.9-3-1-4.2c-0.2-0.4-0.4-0.8-0.5-1.3c-0.2-0.4-0.4-0.8-0.6-1.3c-0.2-0.6-0.4-1.3-0.5-2s-0.4-1.4-0.6-2.1
			c-0.3,0-0.6,0-1,0.2c-0.5,1.3-0.7,2.8-0.6,4.2c0.1,1.4,0.4,2.7,1,4c0.4,1.2,0.8,2.3,1.2,3.4c0.4,1.2,0.7,2.4,0.9,3.6
			c0.2,0.7,0.6,1.4,1.1,2.1c1.6,0.9,2.3,2.5,2.1,4.8v1.4C383.5,112,383.6,112.5,383.7,113z M398.7,46.2c1.6-1.3,3.2-2.7,4.6-4.3
			c-0.1-0.8-0.4-1.5-0.9-2.1c-2,1.4-3.8,3-5.6,4.7c-1.3,1.2-2.6,2.4-3.9,3.7l-3.7,3.7c-0.9,0.8-1.6,1.6-2.1,2.3s-1.2,1.4-2,2.1
			c-0.3,0.5-0.6,1-0.8,1.4s-0.1,0.9,0.5,1.4c0.8-0.2,1.5-0.5,2.1-1s1.1-1.1,1.6-1.7l3-3c0.2-0.2,0.5-0.4,0.8-0.7
			c0.3-0.2,0.6-0.5,0.8-0.9c0.6-1.2,1.4-2.3,2.5-3.2C396.5,47.9,397.6,47,398.7,46.2z M384.1,68.3c0.8-0.3,2.4-2.6,2.7-3
			c0.4-0.4,0.6-1,0.5-1.6c-0.5,0.3-1,0.6-1.4,1C385.2,65.9,384.7,67.1,384.1,68.3L384.1,68.3z M386.9,120.8c0.3-0.7,0.3-1.3,0-1.7
			c-0.3-0.4-0.7-0.7-1.1-1c-0.1,0.5-0.2,1-0.2,1.6C385.6,120.2,386,120.6,386.9,120.8z M395.4,146.6c-1.3-2.9-2.5-5.7-3.8-8.6
			c-1.3-2.9-3-5.6-5.1-7.9c0.4,1.5-0.4,1-0.5,2.5s3.4,6,4.5,7.4c0.5,0.5,0.9,1.2,1,1.9s0.4,1.3,0.9,1.9c1.2,1.8,1.2,2.7,2.1,4.7
			s1.1,3.8,2.6,5.2c0.4,0.5,0.8,1.1,1.1,1.7c0.3,0.6,0.6,1.1,1,1.7c0.5,0.6,0.8,1.2,1.2,1.8c0.4,0.7,0.5-1.6-0.1-2.3
			c-0.6-0.8-1.1-1.7-1.4-2.7c-0.7-1.2-1.3-2.4-1.5-3.8C397.1,148.7,396.4,147.5,395.4,146.6L395.4,146.6z M410.7,34.9
			c0.1-0.2,0.2-0.5,0.2-0.7c0-0.3,0.1-0.6,0.2-0.9c-1.5,0.2-2.9,0.9-4,2c-1.2,1-2,2.4-2.3,3.9c0.6-0.2,1.2-0.6,1.7-1
			c0.7-0.5,1.5-1.1,2.2-1.7S410,35.5,410.7,34.9z"/>
	</g>
</g>
</svg>
